<?xml version="1.0" standalone="no"?>
<!DOCTYPE svg PUBLIC "-//W3C//DTD SVG 20010904//EN"
  "http://www.w3.org/TR/2001/REC-SVG-20010904/DTD/svg10.dtd">
<svg version="1.0" xmlns="http://www.w3.org/2000/svg"
     width="353.000000pt" height="353.000000pt" viewBox="0 0 353.000000 353.000000"
     preserveAspectRatio="xMidYMid meet">
  <metadata>
    Created by potrace 1.11, written by Peter Selinger 2001-2013
  </metadata>
  <g transform="translate(0.000000,353.000000) scale(0.100000,-0.100000)"
     fill="#000000" stroke="none">
    <path d="M1605 3441 c-130 -37 -247 -114 -326 -213 -47 -59 -100 -167 -119
-243 -18 -75 -20 -205 -4 -282 17 -82 22 -95 91 -246 97 -209 110 -297 60
-399 -14 -29 -25 -54 -23 -55 6 -7 72 -6 112 1 23 4 44 4 47 -1 9 -15 -32 -96
-66 -130 l-31 -33 35 -2 c18 0 45 0 58 1 13 1 27 -3 31 -9 11 -18 -15 -163
-101 -565 -45 -208 -27 -276 93 -333 115 -56 328 -76 483 -46 93 18 187 64
220 108 71 94 50 293 -60 566 -38 94 -113 245 -138 277 -6 9 6 7 38 -3 25 -9
48 -14 51 -11 3 3 -2 19 -11 37 -39 76 -25 133 77 312 218 379 271 517 264
687 -5 101 -9 121 -40 205 -73 193 -225 324 -441 381 -71 19 -227 16 -300 -4z
m662 -636 c0 -8 -4 -12 -9 -9 -5 3 -6 10 -3 15 9 13 12 11 12 -6z"/>
    <path d="M2265 1150 c-3 -5 5 -12 17 -16 21 -6 21 -7 2 -18 -10 -6 -20 -21
-22 -33 -3 -19 1 -23 25 -22 23 2 24 2 6 6 -28 5 -29 17 -3 41 19 18 19 18 0
35 -11 9 -22 12 -25 7z"/>
    <path d="M878 651 c-1 -6 -1 -42 0 -81 3 -66 5 -71 25 -68 16 2 23 11 25 31 2
19 9 27 23 27 10 0 19 7 19 15 0 8 -9 15 -20 15 -11 0 -20 7 -20 15 0 9 9 15
25 15 13 0 29 8 34 18 9 17 5 19 -49 21 -33 1 -60 -2 -62 -8z"/>
    <path d="M1017 652 c-3 -4 -5 -40 -6 -80 0 -70 0 -72 24 -72 25 0 25 2 25 80
0 73 -2 80 -19 80 -11 0 -22 -3 -24 -8z"/>
    <path d="M1099 656 c-1 -1 -3 -36 -4 -78 l-2 -78 27 0 c23 0 27 4 24 26 -1 16
3 27 14 31 28 11 33 28 10 33 -34 9 -34 30 0 30 25 0 42 14 42 35 0 3 -108 4
-111 1z"/>
    <path d="M1233 631 c-13 -29 -43 -119 -43 -126 0 -10 28 -5 55 9 27 14 55 12
55 -5 0 -5 11 -9 24 -9 l25 0 -28 78 c-24 67 -31 77 -53 78 -17 1 -28 -6 -35
-25z m47 -63 c0 -10 -7 -18 -16 -18 -11 0 -14 5 -10 16 3 9 6 23 6 32 0 15 2
15 10 2 5 -8 10 -23 10 -32z"/>
    <path d="M1384 618 c4 -24 11 -60 17 -81 9 -34 13 -38 37 -35 24 3 28 8 36 58
l9 55 11 -55 c10 -49 14 -55 38 -58 25 -3 27 0 43 73 18 79 16 91 -9 82 -9 -4
-18 -26 -22 -57 -7 -55 -12 -58 -20 -14 -11 68 -14 75 -36 72 -25 -4 -35 -20
-44 -73 -7 -44 -10 -41 -19 28 -5 39 -10 47 -27 47 -19 0 -20 -4 -14 -42z"/>
    <path d="M1621 643 c-13 -11 -23 -34 -26 -56 -6 -50 27 -87 79 -87 61 0 90 61
61 132 -12 31 -81 37 -114 11z m79 -38 c13 -34 -3 -75 -30 -75 -31 0 -45 74
-17 92 22 14 37 8 47 -17z"/>
    <path d="M1762 580 c0 -72 2 -80 19 -80 19 0 22 6 22 43 0 28 27 19 38 -13 7
-19 18 -30 30 -30 22 0 24 15 5 49 -12 22 -12 28 2 49 15 23 15 26 -7 43 -15
12 -39 19 -66 19 l-43 0 0 -80z m77 36 c9 -11 8 -15 -5 -20 -20 -8 -39 7 -30
23 10 15 21 14 35 -3z"/>
    <path d="M1910 580 l0 -80 49 0 c28 0 53 5 56 10 7 12 -34 30 -52 23 -10 -4
-13 12 -13 61 0 59 -2 66 -20 66 -18 0 -20 -7 -20 -80z"/>
    <path d="M2039 658 c-1 -2 -3 -38 -4 -82 l-2 -78 53 4 c68 6 94 28 94 78 0 49
-25 70 -89 77 -28 2 -52 3 -52 1z m85 -44 c30 -29 15 -75 -26 -79 -22 -3 -24
1 -24 39 1 55 20 70 50 40z"/>
    <path d="M2272 650 c-22 -10 -42 -46 -42 -79 0 -10 11 -30 25 -45 19 -21 33
-26 70 -26 39 0 46 3 43 18 -2 13 -11 16 -35 14 -23 -2 -35 2 -46 18 -29 41 7
87 58 74 19 -5 25 -3 23 7 -6 29 -49 37 -96 19z"/>
    <path d="M2380 597 c0 -73 17 -97 68 -97 27 0 60 20 63 38 5 35 4 103 -1 113
-16 24 -35 2 -36 -42 -3 -68 -3 -69 -20 -76 -23 -9 -34 15 -34 75 0 45 -3 52
-20 52 -18 0 -20 -7 -20 -63z"/>
    <path d="M2530 578 c0 -71 2 -78 20 -78 19 0 22 4 24 39 1 8 12 16 25 18 35 5
51 22 51 53 0 32 -36 52 -88 48 l-32 -2 0 -78z m77 36 c3 -9 0 -20 -8 -24 -16
-11 -18 -9 -24 19 -5 25 22 30 32 5z"/>
    <path d="M1030 388 c-55 -10 -93 -45 -92 -87 1 -49 17 -66 104 -111 98 -51 84
-41 92 -66 16 -51 -45 -73 -142 -51 -51 12 -62 12 -66 1 -8 -21 26 -34 107
-40 116 -10 191 28 189 95 -1 59 -10 66 -183 144 -47 22 -57 46 -29 69 25 20
55 22 119 7 34 -7 46 -7 52 3 11 17 8 19 -53 32 -33 8 -70 9 -98 4z"/>
    <path d="M1334 388 c-66 -17 -96 -89 -58 -140 10 -15 50 -41 87 -59 81 -39
101 -59 92 -89 -12 -39 -80 -47 -172 -21 -25 7 -33 6 -38 -6 -7 -21 -7 -21 55
-33 146 -28 240 8 240 91 0 48 -40 84 -135 121 -99 39 -123 90 -51 104 31 5
53 3 117 -12 30 -7 45 8 25 25 -19 16 -126 29 -162 19z"/>
    <path d="M2304 390 c-76 -11 -122 -60 -108 -116 9 -34 27 -25 35 17 14 64 73
88 123 48 19 -15 26 -30 26 -55 0 -30 -10 -45 -62 -97 -35 -35 -83 -79 -108
-99 -25 -20 -42 -39 -38 -43 12 -12 292 -5 299 7 14 23 -3 28 -99 28 l-97 0
43 25 c142 81 190 175 123 242 -35 36 -83 51 -137 43z"/>
    <path d="M2625 393 c-70 -18 -119 -101 -118 -199 1 -112 54 -164 166 -164 93
0 143 33 162 108 22 85 -16 200 -76 236 -31 18 -100 28 -134 19z m93 -53 c41
-38 57 -172 27 -229 -27 -54 -101 -58 -138 -9 -22 30 -26 134 -7 193 20 62 77
83 118 45z"/>
    <path d="M239 382 l-37 -3 1 -170 0 -169 36 0 36 0 0 157 0 158 48 -1 c26 -1
58 -2 72 -3 14 0 31 -11 41 -26 14 -22 14 -26 -1 -53 -10 -16 -45 -47 -79 -69
-43 -28 -62 -47 -63 -63 -2 -18 2 -21 20 -15 59 18 61 18 100 -33 40 -52 57
-62 96 -53 23 6 22 8 -29 69 l-52 62 51 48 c31 29 51 57 51 70 0 30 -20 70
-39 78 -19 9 -202 20 -252 16z"/>
    <path d="M821 382 c-22 -4 -23 -6 -16 -65 3 -34 8 -92 10 -129 4 -62 2 -69
-25 -98 -53 -56 -134 -32 -147 44 -4 22 -7 43 -6 46 0 3 4 37 8 75 3 39 8 82
10 98 3 25 1 27 -31 27 -24 0 -34 -5 -34 -15 0 -20 0 -20 -10 -56 -21 -71 -23
-165 -5 -202 45 -96 241 -103 302 -11 19 29 21 133 3 194 -5 19 -10 47 -10 61
0 29 -12 37 -49 31z"/>
    <path d="M1594 381 c-2 -2 -4 -81 -4 -176 l0 -171 30 -2 c20 -2 32 3 37 15 7
14 10 258 4 323 -1 10 -12 15 -32 15 -17 0 -33 -2 -35 -4z"/>
    <path d="M1869 355 c-39 -46 -108 -151 -129 -198 -54 -119 8 -161 139 -96 64
32 82 52 63 71 -9 9 -16 7 -29 -4 -19 -16 -55 -30 -86 -33 -27 -3 -31 35 -8
92 21 54 73 154 77 150 1 -1 23 -58 49 -127 60 -161 66 -171 110 -168 19 1 35
4 35 5 0 2 -13 29 -29 61 -34 67 -91 225 -91 252 0 13 -9 19 -38 21 -31 4 -41
-1 -63 -26z"/>
    <path d="M2918 370 c-50 -16 -62 -34 -28 -43 19 -5 21 -13 19 -84 0 -43 -1
-106 0 -140 l1 -63 35 0 35 0 0 169 c0 94 -3 171 -7 173 -5 2 -29 -3 -55 -12z"/>
    <path d="M3115 381 c-61 -26 -76 -93 -29 -136 l26 -25 -23 -9 c-79 -30 -83
-123 -7 -162 54 -28 163 -24 205 7 59 44 51 119 -16 151 -35 17 -36 19 -17 28
11 6 27 22 36 37 13 25 13 31 -4 62 -10 18 -29 39 -42 45 -29 13 -100 14 -129
2z m99 -30 c23 -19 20 -77 -4 -101 -24 -24 -25 -36 -6 -47 23 -13 45 -63 40
-92 -7 -35 -24 -51 -63 -56 -73 -9 -99 81 -39 137 l32 30 -22 17 c-33 25 -40
83 -13 110 22 22 49 23 75 2z"/>
  </g>
</svg>
